<?xml version="1.0" encoding="utf-8"?>
<!-- Generator: Adobe Illustrator 16.0.0, SVG Export Plug-In . SVG Version: 6.00 Build 0)  -->
<!DOCTYPE svg PUBLIC "-//W3C//DTD SVG 1.1//EN" "http://www.w3.org/Graphics/SVG/1.1/DTD/svg11.dtd">
<svg version="1.1" id="Layer_1" xmlns="http://www.w3.org/2000/svg" xmlns:xlink="http://www.w3.org/1999/xlink" x="0px" y="0px"
	 width="547.93px" height="230.975px" viewBox="0 -5.025 547.93 230.975" enable-background="new 0 -5.025 547.93 230.975"
	 xml:space="preserve" fill="chocolate">
	<path d="M124.71,225.95c-10.21-1.34-20.34-3.699-30.12-7.029l3.22-9.471c9.16,3.131,18.64,5.33,28.19,6.58
		L124.71,225.95z M156.21,224.68l-2.21-9.74c8.07-1.83,17.38-4.91,27.67-9.17l3.82,9.24C174.68,219.48,164.83,222.741,156.21,224.68
		z M66.43,206.22c-8.76-4.979-17.3-10.86-25.39-17.479l6.33-7.74c7.65,6.26,15.73,11.819,24,16.52L66.43,206.22z M213.08,202.12
		l-4.56-8.91c8.04-4.109,16.86-8.91,26.2-14.25l4.96,8.69C230.2,193.07,221.25,197.93,213.08,202.12z M265.66,172.28l-5.21-8.539
		c8.38-5.111,16.88-10.421,25.419-15.861l5.371,8.44C282.65,161.799,274.1,167.129,265.66,172.28z M18.8,167.491
		C6.51,153.82,0.26,143.209,0,142.76l8.63-5.051c0.06,0.11,6.05,10.24,17.6,23.101L18.8,167.491z M316.56,140.04l-5.45-8.379
		l25.15-16.431l5.47,8.36L316.56,140.04z M366.879,107.14l-5.469-8.38c8.58-5.59,17.029-11.07,25.27-16.34l5.39,8.43
		C383.85,96.1,375.42,101.56,366.879,107.14z M417.469,74.96l-5.209-8.54c9.1-5.55,17.82-10.69,26.1-15.3l4.859,8.74
		C435.059,64.41,426.44,69.49,417.469,74.96z M469.61,46.42l-4.1-9.12c12.09-5.43,21.85-8.58,29.84-9.63l1.311,9.91
		C489.741,38.49,480.629,41.46,469.61,46.42z"/>
	<path d="M517.795,66.883l30.135-41.772L506.159-5.025l-8.55,11.851l29.923,21.585l-21.588,29.922L517.795,66.883z M517.795,66.883"
		/>
</svg>
