<?xml version="1.0" encoding="iso-8859-1"?>
<!-- Generator: Adobe Illustrator 19.1.0, SVG Export Plug-In . SVG Version: 6.00 Build 0)  -->
<svg version="1.1" id="Capa_1" xmlns="http://www.w3.org/2000/svg" xmlns:xlink="http://www.w3.org/1999/xlink" x="0px" y="0px"
	 viewBox="0 0 481.381 481.381" style="enable-background:new 0 0 481.381 481.381;" xml:space="preserve">
		<path d="M194.544,155.667c0,6.6,5.4,12,12,12s12-5.4,12-12s-5.4-12-12-12S194.544,149.067,194.544,155.667z"/>
		<path d="M248.644,167.667c6.6,0,12-5.4,12-12s-5.4-12-12-12s-12,5.4-12,12S241.944,167.667,248.644,167.667z"/>
		<path d="M290.644,167.667c6.6,0,12-5.4,12-12s-5.4-12-12-12s-12,5.4-12,12S283.944,167.667,290.644,167.667z"/>
		<path d="M455.644,231.667c-23.3-25.4-58.2-36.5-91.5-29.9l-28.2-84.8h47.5c8.6,0,15.6,7,15.6,15.6s-7,15.6-15.6,15.6
			c-6.6,0-12,5.4-12,12s5.4,12,12,12c21.9,0,39.6-17.8,39.6-39.6s-17.8-39.6-39.6-39.6h-64.2c-3.9,0-7.5,1.9-9.7,5
			s-2.9,7.1-1.7,10.8l18.2,54.6l-83.4,93.8c-1.7-0.2-3.5-0.4-5.3-0.4c-4.4,0-8.6,0.7-12.5,2l-50.4-105.6v-32.8l15.8,3.9
			c1,0.2,1.9,0.3,2.8,0.3c5.4,0,10.3-3.7,11.6-9.2c1.6-6.4-2.4-12.9-8.8-14.5l-61.2-14.9c-6.4-1.6-12.9,2.4-14.5,8.8
			s2.4,12.9,8.8,14.5l21.5,5.2v38.9l-58.8,139.8c-1.6,3.7-1.2,7.9,1.1,11.3c2.2,3.3,6,5.4,10,5.4h68.1
			c-2.6,15.9-10.3,30.5-22.2,41.8c-14.4,13.5-33.2,20.7-52.9,20.1s-38.1-8.8-51.6-23.2c-13.5-14.4-20.7-33.2-20.1-52.9
			c1.2-40,34.1-71.7,73.8-71.7c0.7,0,1.5,0,2.2,0c6.6,0.2,12.2-5,12.4-11.6c0.2-6.6-5-12.2-11.6-12.4c-54-1.6-99.2,41-100.8,95
			s41,99.2,95,100.8c1,0,2,0,3,0c25,0,48.8-9.4,67.1-26.7c16.8-15.8,27.3-36.6,30-59.3h3.2c5.1,16.8,20.8,29,39.2,29
			c22.6,0,41-18.4,41-41c0-11.8-5-22.4-13-29.9l69.6-78.1l37.2,111.8c1.7,5,6.4,8.2,11.4,8.2c1.3,0,2.5-0.2,3.8-0.6
			c6.3-2.1,9.7-8.9,7.6-15.2l-23-69.2c24.2-3.8,49.3,4.6,66.2,23.1c27.5,30.1,25.5,76.9-4.6,104.4s-76.9,25.5-104.4-4.6
			s-25.5-76.9,4.6-104.4c4.9-4.5,5.2-12.1,0.7-17s-12.1-5.2-17-0.7c-19.3,17.7-30.5,41.8-31.7,67.9s7.9,51.1,25.6,70.4
			c19.3,21.1,45.7,31.7,72.3,31.7c23.6,0,47.3-8.5,66.1-25.7C489.444,333.567,492.144,271.467,455.644,231.667z M120.744,285.767
			l20.2-48c15.9,11.4,26.6,28.8,29.8,48H120.744z M198.144,285.767h-3.2c-3.6-28.9-19.9-54.8-44.5-70.6l12.7-30.1l41.8,87.6
			C201.944,276.667,199.644,281.067,198.144,285.767z M237.344,314.767c-9.4,0-17-7.6-17-17s7.6-17,17-17c9.4,0,17,7.6,17,17
			S246.644,314.767,237.344,314.767z"/>
</svg>
