<?xml version="1.0" encoding="iso-8859-1"?>
<!-- Generator: Adobe Illustrator 18.0.0, SVG Export Plug-In . SVG Version: 6.00 Build 0)  -->
<!DOCTYPE svg PUBLIC "-//W3C//DTD SVG 1.1//EN" "http://www.w3.org/Graphics/SVG/1.1/DTD/svg11.dtd">
<svg version="1.1" id="Capa_1" xmlns="http://www.w3.org/2000/svg" xmlns:xlink="http://www.w3.org/1999/xlink" x="0px" y="0px"
	 viewBox="0 0 54 54" style="enable-background:new 0 0 54 54;" xml:space="preserve">
<g>
	<path d="M22.12,26.28H16v11.04h5.56c1.786,0,3.18-0.413,4.18-1.24c1-0.826,1.5-2.227,1.5-4.2c0-1.973-0.5-3.399-1.5-4.28
		C24.74,26.72,23.533,26.28,22.12,26.28z"/>
	<path d="M25.84,19.08c0-2.854-1.587-4.28-4.76-4.28H16v8.681h5.16C24.28,23.48,25.84,22.014,25.84,19.08z"/>
	<path d="M41.824,0H12.176C5.462,0,0,5.462,0,12.176v29.648C0,48.538,5.462,54,12.176,54h29.648C48.538,54,54,48.538,54,41.824
		V12.176C54,5.462,48.538,0,41.824,0z M29.36,36.24C28.08,38.747,25.693,40,22.2,40h-9.08V12h8.64c2.187,0,3.94,0.574,5.26,1.72
		C28.34,14.867,29,16.627,29,19c0,2.374-0.88,4.16-2.64,5.36c-0.027,0.026-0.04,0.054-0.04,0.08v0.04
		c1.173,0.533,2.153,1.394,2.94,2.579c0.787,1.188,1.18,2.728,1.18,4.62C30.44,33.36,30.08,34.88,29.36,36.24z M43.92,22.72
		c-0.934-0.293-1.899-0.439-2.899-0.439c-1,0-1.895,0.26-2.681,0.779c-0.787,0.521-1.18,1.221-1.18,2.101V40h-2.88V19.96h2.8V21
		c1.2-0.88,2.72-1.32,4.56-1.32c0.906,0,1.906,0.107,3,0.32L43.92,22.72z"/>
</g>
<g>
</g>
<g>
</g>
<g>
</g>
<g>
</g>
<g>
</g>
<g>
</g>
<g>
</g>
<g>
</g>
<g>
</g>
<g>
</g>
<g>
</g>
<g>
</g>
<g>
</g>
<g>
</g>
<g>
</g>
</svg>
