<?xml version="1.0" encoding="iso-8859-1"?>
<!-- Generator: Adobe Illustrator 19.0.0, SVG Export Plug-In . SVG Version: 6.00 Build 0)  -->
<svg version="1.1" id="Layer_1" xmlns="http://www.w3.org/2000/svg" xmlns:xlink="http://www.w3.org/1999/xlink" x="0px" y="0px"
	 viewBox="0 0 512 512" style="enable-background:new 0 0 512 512;" xml:space="preserve">
		<path d="M135.883,335.128c-3.857-2.233-8.796-0.917-11.032,2.942c-1.635,2.823-4.672,4.577-7.927,4.577
			c-5.045,0-9.149-4.104-9.149-9.149s4.104-9.149,9.149-9.149c4.458,0,8.073-3.614,8.073-8.073s-3.614-8.073-8.073-8.073
			c-13.947,0-25.294,11.347-25.294,25.294s11.347,25.294,25.294,25.294c8.997,0,17.388-4.84,21.901-12.632
			C141.058,342.301,139.742,337.362,135.883,335.128z"/>
		<path d="M437.263,335.121c-3.858-2.231-8.798-0.915-11.03,2.945c-1.635,2.825-4.674,4.58-7.931,4.58
			c-5.045,0-9.149-4.104-9.149-9.149c0-5.045,4.104-9.149,9.149-9.149c4.458,0,8.073-3.614,8.073-8.073s-3.614-8.073-8.073-8.073
			c-13.947,0-25.294,11.347-25.294,25.294c0,13.947,11.347,25.294,25.294,25.294c9,0,17.395-4.844,21.905-12.64
			C442.441,342.292,441.122,337.354,437.263,335.121z"/>
		<path d="M511.897,322.928c-1.24-11.092-4.39-21.536-9.068-31.053c3.971-4.402,6.121-10.816,5.999-18.3
			c-0.132-8.015-2.827-16.664-7.393-23.731c-7.717-11.945-18.665-16.742-28.581-16.779c-29.168-24.017-88.53-27.741-113.072-28.211
			c-3.354-0.065-6.385-2-7.911-5.051l-28.767-57.534c-7.248-14.496-21.819-23.502-38.027-23.502h-21.767
			c-44.477,0-84.895,7.503-120.133,22.301c-30.013,12.603-56.519,30.574-78.782,53.415C19.963,240.063,4.976,291.13,0.595,310.97
			c-1.646,7.453,0.159,15.15,4.953,21.118c4.84,6.025,12.052,9.482,19.784,9.482h32.414c3.956,29.133,28.977,51.665,59.177,51.665
			c30.2,0,55.222-22.532,59.177-51.665h183.025c3.956,29.133,28.976,51.665,59.177,51.665c30.2,0,55.222-22.532,59.177-51.665
			h17.782c4.746,0,9.286-2.034,12.459-5.581C510.905,332.429,512.427,327.669,511.897,322.928z M468.122,249.981
			c5.295-1.927,13.646-0.823,19.75,8.625c2.93,4.535,4.728,10.23,4.81,15.235c0.01,0.595-0.014,1.164-0.054,1.718
			c-7.473-9.578-16.761-17.624-27.308-23.694C466.271,251.012,467.281,250.287,468.122,249.981z M116.924,377.09
			c-24.037,0-43.592-19.555-43.592-43.592c0-24.037,19.555-43.592,43.592-43.592s43.592,19.555,43.592,43.592
			C160.516,357.535,140.961,377.09,116.924,377.09z M418.302,377.09c-24.037,0-43.592-19.555-43.592-43.592
			c0-24.037,19.555-43.592,43.592-43.592c24.037,0,43.592,19.555,43.592,43.592C461.895,357.535,442.339,377.09,418.302,377.09z
			 M495.687,325.226c-0.178,0.199-0.357,0.199-0.424,0.199H477.48c-3.956-29.133-28.976-51.665-59.177-51.665
			c-30.2,0-55.222,22.532-59.177,51.665H176.102c-3.956-29.133-28.976-51.665-59.177-51.665c-30.2,0-55.222,22.532-59.177,51.665
			H25.333c-1.039,0-2.052-0.173-3.004-0.499c18.078-42.301,54.897-69.463,94.595-69.463c31.018,0,59.096,18.366,71.532,46.791
			c1.787,4.085,6.547,5.947,10.631,4.16s5.947-6.546,4.16-10.631c-15.006-34.301-48.89-56.465-86.323-56.465
			c-36.33,0-70.427,19.169-93.375,50.816c8.114-22.497,23.706-54.938,52.405-84.382c45.818-47.006,108.854-70.84,187.353-70.84
			h21.767c10.053,0,19.09,5.585,23.587,14.577l28.767,57.534c4.219,8.44,12.667,13.793,22.043,13.973
			c10.492,0.202,31.285,1.133,52.654,5.116c17.566,3.274,31.908,7.999,42.273,13.858c-1.638,1.47-3.139,3.114-4.395,4.826
			c-9.932-3.539-20.602-5.48-31.7-5.48c-37.453,0-71.344,22.179-86.341,56.506c-1.786,4.086,0.08,8.844,4.165,10.629
			c4.086,1.785,8.844-0.081,10.629-4.165c12.427-28.445,40.512-46.825,71.546-46.825c39.796,0,73.135,29.775,77.548,69.261
			C495.872,324.91,495.817,325.08,495.687,325.226z"/>
		<path d="M322.393,209.767l-23.596-55.057c-2.633-6.143-8.652-10.111-15.335-10.111h-28.765
			c-58.199,0-103.061,21.577-123.793,40.054c-6.448,5.747-8.617,14.703-5.526,22.817c3.136,8.231,10.832,13.55,19.608,13.55h169.988
			c2.714,0,5.246-1.364,6.739-3.628C323.207,215.125,323.462,212.26,322.393,209.767z M212.181,204.873h-67.197
			c-3.079,0-4.238-2.413-4.52-3.153c-0.339-0.89-0.902-3.16,1.181-5.016c14.097-12.563,39.364-25.196,70.535-31.619V204.873z
			 M228.326,204.873v-42.464c8.489-1.07,17.306-1.666,26.371-1.666h28.765c0.215,0,0.409,0.128,0.494,0.326l18.773,43.804H228.326z"
			/>
</svg>
