<?xml version="1.0" encoding="iso-8859-1"?>
<!-- Generator: Adobe Illustrator 19.1.0, SVG Export Plug-In . SVG Version: 6.00 Build 0)  -->
<svg version="1.1" id="Capa_1" xmlns="http://www.w3.org/2000/svg" xmlns:xlink="http://www.w3.org/1999/xlink" x="0px" y="0px"
	 viewBox="0 0 335.802 335.802" style="enable-background:new 0 0 335.802 335.802;" xml:space="preserve">
	<path d="M290.821,291.621H44.988C20.18,291.621,0,271.428,0,246.633V89.169c0-24.808,20.18-44.988,44.988-44.988h245.826
		c24.795,0,44.988,20.18,44.988,44.988v157.464C335.809,271.434,315.622,291.621,290.821,291.621z M44.988,57.035
		c-17.725,0-32.134,14.409-32.134,32.134v157.464c0,17.719,14.409,32.134,32.134,32.134h245.826
		c17.719,0,32.134-14.415,32.134-32.134V89.169c0-17.725-14.415-32.134-32.134-32.134C290.814,57.035,44.988,57.035,44.988,57.035z
		 M231.745,81.971c16.035,0,29.036,12.995,29.036,29.036s-12.995,29.043-29.036,29.043s-29.036-13.001-29.036-29.043
		S215.71,81.971,231.745,81.971z M272.228,81.971c16.035,0,29.043,12.995,29.043,29.036s-13.001,29.043-29.043,29.043
		c-16.041,0-29.036-13.001-29.036-29.043S256.193,81.971,272.228,81.971z M34.544,216.645h53.529v19.281H34.544V216.645z
		 M105.606,216.645h53.536v19.281h-53.536V216.645z M176.654,216.645h53.548v19.281h-53.548V216.645z M247.716,216.645h53.548
		v19.281h-53.548V216.645z M34.544,81.977h101.191v19.281H34.544V81.977z M34.544,120.236h53.542v19.281H34.544V120.236z"/>
</svg>
