<?xml version="1.0" encoding="iso-8859-1"?>
<!-- Generator: Adobe Illustrator 18.0.0, SVG Export Plug-In . SVG Version: 6.00 Build 0)  -->
<!DOCTYPE svg PUBLIC "-//W3C//DTD SVG 1.1//EN" "http://www.w3.org/Graphics/SVG/1.1/DTD/svg11.dtd">
<svg version="1.1" id="Capa_1" xmlns="http://www.w3.org/2000/svg" xmlns:xlink="http://www.w3.org/1999/xlink" x="0px" y="0px"
	 viewBox="0 0 242.041 242.041" style="enable-background:new 0 0 242.041 242.041;" xml:space="preserve">
<g>
	<path d="M239.506,66.581c-8.201-32.165-35.386-54.63-66.11-54.63c-20.208,0-38.49,9.711-52.394,27.59
		c-13.896-17.881-32.17-27.59-52.373-27.59c-30.712,0-57.89,22.464-66.092,54.628c-4.389,17.211-5.242,44.71,15.619,77.978
		c19.272,30.734,52.666,59.203,99.251,84.616c1.12,0.61,2.355,0.916,3.592,0.916c1.236,0,2.472-0.306,3.591-0.916
		c46.599-25.414,80.002-53.883,99.282-84.616C244.743,111.289,243.893,83.79,239.506,66.581z M121,214.025
		C6.852,150.416,12.546,88.032,17.072,70.286c6.507-25.515,27.708-43.335,51.558-43.335c18.033,0,34.354,10.552,45.955,29.71
		c1.359,2.244,3.791,3.615,6.414,3.615c0,0,0.001,0,0.001,0c2.623,0,5.055-1.37,6.414-3.613
		c11.611-19.16,27.942-29.712,45.982-29.712c23.861,0,45.069,17.82,51.575,43.335C229.495,88.031,235.181,150.411,121,214.025z"/>
	<path d="M195.118,121.907h-33.705l-12.538-46.403c-0.884-3.272-3.852-5.544-7.24-5.544c-0.001,0-0.003,0-0.005,0
		c-3.391,0.002-6.358,2.279-7.238,5.554l-17.243,64.179L99.906,75.514c-0.872-3.246-3.797-5.515-7.158-5.554
		c-0.028,0-0.057,0-0.086,0c-3.325,0-6.258,2.192-7.196,5.39l-8.728,29.771H42.904c-4.142,0-7.5,3.357-7.5,7.5s3.358,7.5,7.5,7.5
		h39.451c3.33,0,6.26-2.195,7.197-5.39l2.796-9.538l17.558,65.351c0.88,3.276,3.851,5.554,7.243,5.554
		c3.393,0,6.363-2.277,7.243-5.554l17.263-64.254l6.775,25.074c0.884,3.271,3.851,5.544,7.24,5.544h39.447
		c4.142,0,7.5-3.357,7.5-7.5C202.618,125.265,199.261,121.907,195.118,121.907z"/>
</g>
<g>
</g>
<g>
</g>
<g>
</g>
<g>
</g>
<g>
</g>
<g>
</g>
<g>
</g>
<g>
</g>
<g>
</g>
<g>
</g>
<g>
</g>
<g>
</g>
<g>
</g>
<g>
</g>
<g>
</g>
</svg>
