<?xml version="1.0" encoding="iso-8859-1"?>
<!-- Generator: Adobe Illustrator 19.0.0, SVG Export Plug-In . SVG Version: 6.00 Build 0)  -->
<svg version="1.1" id="Capa_1" xmlns="http://www.w3.org/2000/svg" xmlns:xlink="http://www.w3.org/1999/xlink" x="0px" y="0px"
	 viewBox="0 0 480 480" style="enable-background:new 0 0 480 480;" xml:space="preserve">
	<path style="fill:#000001;" d="M472,408V216c2.572,0,4.986-1.236,6.49-3.322c1.504-2.086,1.913-4.768,1.1-7.208l-24-72
		c-1.089-3.267-4.146-5.47-7.589-5.47H344v-24.998c0.001,0,0.002,0,0.003,0c3.446,0,6.628-2.245,7.663-5.717
		c1.262-4.234-1.147-8.689-5.381-9.952l-104-31c-1.491-0.443-3.079-0.443-4.57,0l-104,31c-4.234,1.263-6.644,5.718-5.381,9.952
		c1.035,3.472,4.219,5.71,7.667,5.711V128H32c-3.443,0-6.5,2.203-7.589,5.47l-24,72c-0.813,2.44-0.404,5.122,1.1,7.208
		C3.014,214.764,5.428,216,8,216v192c-4.418,0-8,3.582-8,8s3.582,8,8,8h464c4.418,0,8-3.582,8-8S476.419,408,472,408z M456,408H344
		V216h112V408z M152,360h32v48h-32V360z M200,360h80v48h-80V360z M296,360h32v48h-32V360z M442.234,144l18.667,56H344v-56H442.234z
		 M240,72.348l88,26.231V136v72v136H152V208v-72V98.579L240,72.348z M37.766,144H136v56H19.1L37.766,144z M24,216h112v192H24V216z"
		/>
	<path style="fill:#000001;" d="M112,160c-4.418,0-8,3.582-8,8v16c0,4.418,3.582,8,8,8s8-3.582,8-8v-16
		C120,163.582,116.419,160,112,160z"/>
	<path style="fill:#000001;" d="M80,160c-4.418,0-8,3.582-8,8v16c0,4.418,3.582,8,8,8s8-3.582,8-8v-16C88,163.582,84.419,160,80,160
		z"/>
	<path style="fill:#000001;" d="M48,160c-4.418,0-8,3.582-8,8v16c0,4.418,3.582,8,8,8s8-3.582,8-8v-16C56,163.582,52.419,160,48,160
		z"/>
	<path style="fill:#000001;" d="M432,192c4.418,0,8-3.582,8-8v-16c0-4.418-3.582-8-8-8s-8,3.582-8,8v16
		C424,188.418,427.582,192,432,192z"/>
	<path style="fill:#000001;" d="M400,192c4.418,0,8-3.582,8-8v-16c0-4.418-3.582-8-8-8s-8,3.582-8,8v16
		C392,188.418,395.582,192,400,192z"/>
	<path style="fill:#000001;" d="M368,192c4.418,0,8-3.582,8-8v-16c0-4.418-3.582-8-8-8s-8,3.582-8,8v16
		C360,188.418,363.582,192,368,192z"/>
	<path style="fill:#000001;" d="M112,232c-4.418,0-8,3.582-8,8v24c0,4.418,3.582,8,8,8s8-3.582,8-8v-24
		C120,235.582,116.419,232,112,232z"/>
	<path style="fill:#000001;" d="M80,232c-4.418,0-8,3.582-8,8v24c0,4.418,3.582,8,8,8s8-3.582,8-8v-24C88,235.582,84.419,232,80,232
		z"/>
	<path style="fill:#000001;" d="M48,232c-4.418,0-8,3.582-8,8v24c0,4.418,3.582,8,8,8s8-3.582,8-8v-24C56,235.582,52.419,232,48,232
		z"/>
	<path style="fill:#000001;" d="M112,288c-4.418,0-8,3.582-8,8v24c0,4.418,3.582,8,8,8s8-3.582,8-8v-24
		C120,291.582,116.419,288,112,288z"/>
	<path style="fill:#000001;" d="M80,288c-4.418,0-8,3.582-8,8v24c0,4.418,3.582,8,8,8s8-3.582,8-8v-24C88,291.582,84.419,288,80,288
		z"/>
	<path style="fill:#000001;" d="M48,288c-4.418,0-8,3.582-8,8v24c0,4.418,3.582,8,8,8s8-3.582,8-8v-24C56,291.582,52.419,288,48,288
		z"/>
	<path style="fill:#000001;" d="M112,344c-4.418,0-8,3.582-8,8v24c0,4.418,3.582,8,8,8s8-3.582,8-8v-24
		C120,347.582,116.419,344,112,344z"/>
	<path style="fill:#000001;" d="M80,344c-4.418,0-8,3.582-8,8v24c0,4.418,3.582,8,8,8s8-3.582,8-8v-24C88,347.582,84.419,344,80,344
		z"/>
	<path style="fill:#000001;" d="M48,344c-4.418,0-8,3.582-8,8v24c0,4.418,3.582,8,8,8s8-3.582,8-8v-24C56,347.582,52.419,344,48,344
		z"/>
	<path style="fill:#000001;" d="M432,272c4.418,0,8-3.582,8-8v-24c0-4.418-3.582-8-8-8s-8,3.582-8,8v24
		C424,268.418,427.582,272,432,272z"/>
	<path style="fill:#000001;" d="M400,272c4.418,0,8-3.582,8-8v-24c0-4.418-3.582-8-8-8s-8,3.582-8,8v24
		C392,268.418,395.582,272,400,272z"/>
	<path style="fill:#000001;" d="M368,272c4.418,0,8-3.582,8-8v-24c0-4.418-3.582-8-8-8s-8,3.582-8,8v24
		C360,268.418,363.582,272,368,272z"/>
	<path style="fill:#000001;" d="M432,328c4.418,0,8-3.582,8-8v-24c0-4.418-3.582-8-8-8s-8,3.582-8,8v24
		C424,324.418,427.582,328,432,328z"/>
	<path style="fill:#000001;" d="M400,328c4.418,0,8-3.582,8-8v-24c0-4.418-3.582-8-8-8s-8,3.582-8,8v24
		C392,324.418,395.582,328,400,328z"/>
	<path style="fill:#000001;" d="M368,328c4.418,0,8-3.582,8-8v-24c0-4.418-3.582-8-8-8s-8,3.582-8,8v24
		C360,324.418,363.582,328,368,328z"/>
	<path style="fill:#000001;" d="M432,384c4.418,0,8-3.582,8-8v-24c0-4.418-3.582-8-8-8s-8,3.582-8,8v24
		C424,380.418,427.582,384,432,384z"/>
	<path style="fill:#000001;" d="M400,384c4.418,0,8-3.582,8-8v-24c0-4.418-3.582-8-8-8s-8,3.582-8,8v24
		C392,380.418,395.582,384,400,384z"/>
	<path style="fill:#000001;" d="M368,384c4.418,0,8-3.582,8-8v-24c0-4.418-3.582-8-8-8s-8,3.582-8,8v24
		C360,380.418,363.582,384,368,384z"/>
	<path style="fill:#000001;" d="M272,272c4.418,0,8-3.582,8-8v-24c0-4.418-3.582-8-8-8s-8,3.582-8,8v24
		C264,268.418,267.582,272,272,272z"/>
	<path style="fill:#000001;" d="M240,272c4.418,0,8-3.582,8-8v-24c0-4.418-3.582-8-8-8s-8,3.582-8,8v24
		C232,268.418,235.582,272,240,272z"/>
	<path style="fill:#000001;" d="M208,272c4.418,0,8-3.582,8-8v-24c0-4.418-3.582-8-8-8s-8,3.582-8,8v24
		C200,268.418,203.582,272,208,272z"/>
	<path style="fill:#000001;" d="M272,328c4.418,0,8-3.582,8-8v-24c0-4.418-3.582-8-8-8s-8,3.582-8,8v24
		C264,324.418,267.582,328,272,328z"/>
	<path style="fill:#000001;" d="M240,328c4.418,0,8-3.582,8-8v-24c0-4.418-3.582-8-8-8s-8,3.582-8,8v24
		C232,324.418,235.582,328,240,328z"/>
	<path style="fill:#000001;" d="M208,328c4.418,0,8-3.582,8-8v-24c0-4.418-3.582-8-8-8s-8,3.582-8,8v24
		C200,324.418,203.582,328,208,328z"/>
	<path style="fill:#000001;" d="M176,272c4.418,0,8-3.582,8-8v-24c0-4.418-3.582-8-8-8s-8,3.582-8,8v24
		C168,268.418,171.582,272,176,272z"/>
	<path style="fill:#000001;" d="M176,328c4.418,0,8-3.582,8-8v-24c0-4.418-3.582-8-8-8s-8,3.582-8,8v24
		C168,324.418,171.582,328,176,328z"/>
	<path style="fill:#000001;" d="M304,272c4.418,0,8-3.582,8-8v-24c0-4.418-3.582-8-8-8s-8,3.582-8,8v24
		C296,268.418,299.582,272,304,272z"/>
	<path style="fill:#000001;" d="M272,216c4.418,0,8-3.582,8-8v-24c0-4.418-3.582-8-8-8s-8,3.582-8,8v24
		C264,212.418,267.582,216,272,216z"/>
	<path style="fill:#000001;" d="M240,216c4.418,0,8-3.582,8-8v-24c0-4.418-3.582-8-8-8s-8,3.582-8,8v24
		C232,212.418,235.582,216,240,216z"/>
	<path style="fill:#000001;" d="M208,216c4.418,0,8-3.582,8-8v-24c0-4.418-3.582-8-8-8s-8,3.582-8,8v24
		C200,212.418,203.582,216,208,216z"/>
	<path style="fill:#000001;" d="M176,216c4.418,0,8-3.582,8-8v-24c0-4.418-3.582-8-8-8s-8,3.582-8,8v24
		C168,212.418,171.582,216,176,216z"/>
	<path style="fill:#000001;" d="M304,216c4.418,0,8-3.582,8-8v-24c0-4.418-3.582-8-8-8s-8,3.582-8,8v24
		C296,212.418,299.582,216,304,216z"/>
	<path style="fill:#000001;" d="M272,160c4.418,0,8-3.582,8-8v-24c0-4.418-3.582-8-8-8s-8,3.582-8,8v24
		C264,156.418,267.582,160,272,160z"/>
	<path style="fill:#000001;" d="M240,160c4.418,0,8-3.582,8-8v-24c0-4.418-3.582-8-8-8s-8,3.582-8,8v24
		C232,156.418,235.582,160,240,160z"/>
	<path style="fill:#000001;" d="M208,160c4.418,0,8-3.582,8-8v-24c0-4.418-3.582-8-8-8s-8,3.582-8,8v24
		C200,156.418,203.582,160,208,160z"/>
	<path style="fill:#000001;" d="M176,160c4.418,0,8-3.582,8-8v-24c0-4.418-3.582-8-8-8s-8,3.582-8,8v24
		C168,156.418,171.582,160,176,160z"/>
	<path style="fill:#000001;" d="M304,160c4.418,0,8-3.582,8-8v-24c0-4.418-3.582-8-8-8s-8,3.582-8,8v24
		C296,156.418,299.582,160,304,160z"/>
	<path style="fill:#000001;" d="M304,328c4.418,0,8-3.582,8-8v-24c0-4.418-3.582-8-8-8s-8,3.582-8,8v24
		C296,324.418,299.582,328,304,328z"/>
</svg>
