<?xml version="1.0" encoding="iso-8859-1"?>
<!-- Generator: Adobe Illustrator 19.0.0, SVG Export Plug-In . SVG Version: 6.00 Build 0)  -->
<svg version="1.1" id="Layer_1" xmlns="http://www.w3.org/2000/svg" xmlns:xlink="http://www.w3.org/1999/xlink" x="0px" y="0px"
	 viewBox="0 0 503.607 503.607" style="enable-background:new 0 0 503.607 503.607;" xml:space="preserve">
			<path d="M494.213,452.246h-25.18V7.393c0-5.036-3.357-8.393-8.393-8.393H40.967c-5.036,0-8.393,3.357-8.393,8.393v444.852H7.393
				c-5.036,0-8.393,3.357-8.393,8.393v33.574c0,5.036,3.357,8.393,8.393,8.393h486.82c5.036,0,8.393-3.357,8.393-8.393v-33.574
				C502.607,455.603,499.249,452.246,494.213,452.246z M49.361,15.787h402.885v436.459H326.344v-92.328
				c0-5.036-3.357-8.393-8.393-8.393h-67.148h-67.148c-5.036,0-8.393,3.357-8.393,8.393v92.328H49.361V15.787z M192.049,452.246
				v-83.934h50.361v83.934H192.049z M259.197,368.311h50.361v83.934h-50.361V368.311z M485.82,485.82H15.787v-16.787h25.18h142.689
				h67.148h67.148h142.689h25.18V485.82z"/>
			<path d="M158.475,40.967H91.328c-5.036,0-8.393,3.357-8.393,8.393v50.361c0,5.036,3.357,8.393,8.393,8.393h67.148
				c5.036,0,8.393-3.357,8.393-8.393V49.361C166.869,44.325,163.511,40.967,158.475,40.967z M150.082,91.328H99.721V57.754h50.361
				V91.328z"/>
			<path d="M158.475,133.295H91.328c-5.036,0-8.393,3.357-8.393,8.393v50.361c0,5.036,3.357,8.393,8.393,8.393h67.148
				c5.036,0,8.393-3.357,8.393-8.393v-50.361C166.869,136.652,163.511,133.295,158.475,133.295z M150.082,183.656H99.721v-33.574
				h50.361V183.656z"/>
			<path d="M217.229,200.443h67.148c5.036,0,8.393-3.357,8.393-8.393v-50.361c0-5.036-3.357-8.393-8.393-8.393h-67.148
				c-5.036,0-8.393,3.357-8.393,8.393v50.361C208.836,197.085,212.193,200.443,217.229,200.443z M225.623,150.082h50.361v33.574
				h-50.361V150.082z"/>
			<path d="M343.131,200.443h67.148c5.036,0,8.393-3.357,8.393-8.393v-50.361c0-5.036-3.357-8.393-8.393-8.393h-67.148
				c-5.036,0-8.393,3.357-8.393,8.393v50.361C334.738,197.085,338.095,200.443,343.131,200.443z M351.525,150.082h50.361v33.574
				h-50.361V150.082z"/>
			<path d="M217.229,292.771h67.148c5.036,0,8.393-3.357,8.393-8.393v-50.361c0-5.036-3.357-8.393-8.393-8.393h-67.148
				c-5.036,0-8.393,3.357-8.393,8.393v50.361C208.836,289.413,212.193,292.771,217.229,292.771z M225.623,242.41h50.361v33.574
				h-50.361V242.41z"/>
			<path d="M343.131,292.771h67.148c5.036,0,8.393-3.357,8.393-8.393v-50.361c0-5.036-3.357-8.393-8.393-8.393h-67.148
				c-5.036,0-8.393,3.357-8.393,8.393v50.361C334.738,289.413,338.095,292.771,343.131,292.771z M351.525,242.41h50.361v33.574
				h-50.361V242.41z"/>
			<path d="M158.475,225.623H91.328c-5.036,0-8.393,3.357-8.393,8.393v50.361c0,5.036,3.357,8.393,8.393,8.393h67.148
				c5.036,0,8.393-3.357,8.393-8.393v-50.361C166.869,228.98,163.511,225.623,158.475,225.623z M150.082,275.984H99.721V242.41
				h50.361V275.984z"/>
			<path d="M217.229,108.115h67.148c5.036,0,8.393-3.357,8.393-8.393V49.361c0-5.036-3.357-8.393-8.393-8.393h-67.148
				c-5.036,0-8.393,3.357-8.393,8.393v50.361C208.836,104.757,212.193,108.115,217.229,108.115z M225.623,57.754h50.361v33.574
				h-50.361V57.754z"/>
			<path d="M343.131,108.115h67.148c5.036,0,8.393-3.357,8.393-8.393V49.361c0-5.036-3.357-8.393-8.393-8.393h-67.148
				c-5.036,0-8.393,3.357-8.393,8.393v50.361C334.738,104.757,338.095,108.115,343.131,108.115z M351.525,57.754h50.361v33.574
				h-50.361V57.754z"/>
			<path d="M200.443,334.738h100.721c5.036,0,8.393-3.357,8.393-8.393c0-5.036-3.357-8.393-8.393-8.393H200.443
				c-5.036,0-8.393,3.357-8.393,8.393C192.049,331.38,195.407,334.738,200.443,334.738z"/>
</svg>
