<?xml version="1.0" encoding="iso-8859-1"?>
<!-- Generator: Adobe Illustrator 17.1.0, SVG Export Plug-In . SVG Version: 6.00 Build 0)  -->
<!DOCTYPE svg PUBLIC "-//W3C//DTD SVG 1.1//EN" "http://www.w3.org/Graphics/SVG/1.1/DTD/svg11.dtd">
<svg version="1.1" id="Capa_1" xmlns="http://www.w3.org/2000/svg" xmlns:xlink="http://www.w3.org/1999/xlink" x="0px" y="0px"
	 viewBox="0 0 470 470" style="enable-background:new 0 0 470 470;" xml:space="preserve">
	<path d="M309.369,387.698c-4.143,0-7.5,3.358-7.5,7.5v54.356c0,4.142,3.357,7.5,7.5,7.5s7.5-3.358,7.5-7.5v-54.356
		C316.869,391.056,313.512,387.698,309.369,387.698z"/>
	<path d="M160.631,387.698c-4.143,0-7.5,3.358-7.5,7.5v54.356c0,4.142,3.357,7.5,7.5,7.5s7.5-3.358,7.5-7.5v-54.356
		C168.131,391.056,164.773,387.698,160.631,387.698z"/>
	<path d="M469.614,362.824l-78.762-236.053c-1.021-3.062-3.887-5.126-7.114-5.126s-6.093,2.065-7.114,5.126l-23.679,70.969
		L316.483,88.461c-1.021-3.061-3.887-5.126-7.114-5.126s-6.093,2.065-7.114,5.126l-18.328,54.927L242.114,18.072
		c-1.021-3.061-3.887-5.126-7.114-5.126s-6.093,2.065-7.114,5.126L186.072,143.39l-18.327-54.928
		c-1.021-3.062-3.887-5.126-7.114-5.126s-6.093,2.064-7.114,5.126l-36.462,109.277l-23.679-70.967
		c-1.021-3.061-3.887-5.126-7.114-5.126s-6.093,2.064-7.114,5.126L0.386,362.824c-0.764,2.288-0.38,4.802,1.029,6.758
		c1.409,1.957,3.674,3.116,6.085,3.116h71.262v76.856c0,4.142,3.357,7.5,7.5,7.5s7.5-3.358,7.5-7.5v-76.856H227.5v76.856
		c0,4.142,3.357,7.5,7.5,7.5s7.5-3.358,7.5-7.5v-76.856h133.738v76.856c0,4.142,3.357,7.5,7.5,7.5s7.5-3.358,7.5-7.5v-76.856H462.5
		c2.411,0,4.676-1.159,6.085-3.116C469.994,367.626,470.378,365.111,469.614,362.824z M309.369,114.531l35.669,106.904
		l-17.535,52.553l-35.67-106.905L309.369,114.531z M160.631,114.532l17.535,52.554l-35.67,106.903l-17.535-52.555L160.631,114.532z
		 M86.262,303.489c-4.143,0-7.5,3.358-7.5,7.5v46.709H17.909l68.353-204.856l48.328,144.843l-20.024,60.013H93.762v-46.709
		C93.762,306.847,90.404,303.489,86.262,303.489z M242.5,316.584l38.561-41.35c2.824-3.029,2.659-7.775-0.37-10.6
		c-3.03-2.826-7.775-2.659-10.601,0.37l-27.59,29.585v-58.65c0-4.142-3.357-7.5-7.5-7.5s-7.5,3.358-7.5,7.5v58.169l-27.632-29.148
		c-2.852-3.006-7.599-3.132-10.604-0.283c-3.006,2.85-3.133,7.597-0.283,10.603L227.5,315.91v41.788h-97.122L235,44.143
		l104.622,313.555H242.5V316.584z M391.238,357.698v-46.709c0-4.142-3.357-7.5-7.5-7.5s-7.5,3.358-7.5,7.5v46.709h-20.804
		l-20.024-60.013l48.328-144.843l68.353,204.856H391.238z"/>
</svg>
