<?xml version='1.0' encoding='utf-8'?>
<!DOCTYPE svg PUBLIC '-//W3C//DTD SVG 1.1//EN' 'http://www.w3.org/Graphics/SVG/1.1/DTD/svg11.dtd'>
<svg version="1.1" xmlns="http://www.w3.org/2000/svg" viewBox="0 0 512 512" xmlns:xlink="http://www.w3.org/1999/xlink" enable-background="new 0 0 512 512">
      <path d="M256,11C151.1,11,65.7,96.4,65.7,201.3c0,102.3,175.3,288.6,182.7,296.5c5.8,6.2,13.2,2.1,15.1,0    c7.5-7.9,182.7-194.2,182.7-296.5C446.3,96.4,360.9,11,256,11z M256,475.2C222.2,438.1,86.6,284,86.6,201.3    c0-93.4,76-169.4,169.4-169.4c93.4,0,169.4,76,169.4,169.4C425.4,284,289.8,438,256,475.2z"/>
      <path d="m256,105.6c-52.8,0-95.7,42.9-95.7,95.7 0,52.8 42.9,95.7 95.7,95.7 52.8,0 95.7-42.9 95.7-95.7 0-52.8-42.9-95.7-95.7-95.7zm0,170.5c-41.3,0-74.9-33.6-74.9-74.9 0-41.3 33.6-74.9 74.9-74.9 41.3,0 74.9,33.6 74.9,74.9 0,41.4-33.6,74.9-74.9,74.9z"/>
</svg>
