<?xml version="1.0" encoding="utf-8"?>
<!-- Generator: Adobe Illustrator 16.0.0, SVG Export Plug-In . SVG Version: 6.00 Build 0)  -->
<!DOCTYPE svg PUBLIC "-//W3C//DTD SVG 1.1//EN" "http://www.w3.org/Graphics/SVG/1.1/DTD/svg11.dtd">
<svg version="1.1" id="Layer_1" xmlns="http://www.w3.org/2000/svg" xmlns:xlink="http://www.w3.org/1999/xlink" x="0px" y="0px"
	 width="905.91px" height="140px" viewBox="0 0 90.591 14" enable-background="new 0 0 90.591 14" xml:space="preserve" fill="fuchsia">

		<path clip-path="url(#SVGID_2_)" d="M14.573,5.294c-0.048-0.146-0.175-0.251-0.327-0.275L9.694,4.373l-2.05-4.118
			C7.576,0.116,7.436,0.03,7.283,0.03c-0.153,0-0.293,0.085-0.362,0.227l-2.022,4.13L0.346,5.063C0.193,5.088,0.067,5.193,0.02,5.34
			c-0.047,0.148-0.006,0.31,0.106,0.413l3.302,3.203l-0.763,4.534c-0.027,0.153,0.035,0.303,0.161,0.395
			c0.069,0.053,0.153,0.079,0.237,0.079c0.065,0,0.129-0.016,0.188-0.051l4.064-2.149l4.077,2.129
			c0.06,0.029,0.122,0.045,0.186,0.045c0.221,0,0.404-0.185,0.404-0.405c0-0.035-0.002-0.064-0.013-0.09l-0.787-4.511l3.283-3.219
			C14.581,5.604,14.621,5.442,14.573,5.294L14.573,5.294z M10.469,8.504c-0.097,0.092-0.137,0.226-0.114,0.356l0.686,3.934
			l-3.54-1.85c-0.118-0.061-0.257-0.056-0.376,0l-3.528,1.872l0.661-3.939C4.279,8.744,4.236,8.613,4.14,8.519L1.278,5.741
			l3.95-0.587C5.359,5.133,5.474,5.052,5.53,4.933l1.756-3.585l1.779,3.576c0.06,0.12,0.173,0.201,0.305,0.221l3.953,0.563
			L10.469,8.504z M10.469,8.504"/>

		<path clip-path="url(#SVGID_4_)" d="M33.573,5.294c-0.048-0.146-0.175-0.251-0.327-0.275l-4.552-0.646l-2.05-4.118
			c-0.068-0.14-0.208-0.225-0.361-0.225c-0.153,0-0.293,0.085-0.362,0.227l-2.022,4.13l-4.552,0.676
			c-0.153,0.025-0.279,0.13-0.327,0.276c-0.047,0.148-0.006,0.31,0.106,0.413l3.302,3.203l-0.763,4.534
			c-0.027,0.153,0.035,0.303,0.161,0.395c0.069,0.053,0.153,0.079,0.237,0.079c0.065,0,0.129-0.016,0.188-0.051l4.064-2.149
			l4.077,2.129c0.06,0.029,0.122,0.045,0.186,0.045c0.221,0,0.404-0.185,0.404-0.405c0-0.035-0.002-0.064-0.013-0.09l-0.787-4.511
			l3.283-3.219C33.582,5.604,33.621,5.442,33.573,5.294L33.573,5.294z M29.469,8.504c-0.097,0.092-0.137,0.226-0.114,0.356
			l0.686,3.934l-3.54-1.85c-0.118-0.061-0.257-0.056-0.376,0l-3.528,1.872l0.661-3.939c0.021-0.133-0.021-0.264-0.117-0.358
			l-2.862-2.777l3.95-0.587c0.131-0.021,0.246-0.102,0.302-0.221l1.756-3.585l1.779,3.576c0.06,0.12,0.173,0.201,0.305,0.221
			l3.953,0.563L29.469,8.504z M29.469,8.504"/>


		<path clip-path="url(#SVGID_6_)" d="M52.573,5.294c-0.048-0.146-0.175-0.251-0.327-0.275l-4.552-0.646l-2.05-4.118
			c-0.068-0.14-0.208-0.225-0.361-0.225c-0.152,0-0.293,0.085-0.362,0.227l-2.022,4.13l-4.552,0.676
			c-0.153,0.025-0.279,0.13-0.327,0.276c-0.047,0.148-0.006,0.31,0.106,0.413l3.302,3.203l-0.763,4.534
			c-0.027,0.153,0.035,0.303,0.161,0.395c0.069,0.053,0.153,0.079,0.237,0.079c0.065,0,0.129-0.016,0.188-0.051l4.064-2.149
			l4.076,2.129c0.06,0.029,0.122,0.045,0.186,0.045c0.221,0,0.404-0.185,0.404-0.405c0-0.035-0.002-0.064-0.013-0.09l-0.787-4.511
			l3.283-3.219C52.582,5.604,52.621,5.442,52.573,5.294L52.573,5.294z M48.469,8.504c-0.097,0.092-0.138,0.226-0.114,0.356
			l0.686,3.934l-3.539-1.85c-0.118-0.061-0.258-0.056-0.377,0l-3.528,1.872l0.661-3.939c0.021-0.133-0.021-0.264-0.117-0.358
			l-2.862-2.777l3.95-0.587c0.131-0.021,0.246-0.102,0.302-0.221l1.756-3.585l1.779,3.576c0.06,0.12,0.173,0.201,0.305,0.221
			l3.953,0.563L48.469,8.504z M48.469,8.504"/>

		<path clip-path="url(#SVGID_8_)" d="M71.573,5.294c-0.048-0.146-0.175-0.251-0.327-0.275l-4.552-0.646l-2.05-4.118
			c-0.068-0.14-0.208-0.225-0.361-0.225c-0.152,0-0.293,0.085-0.362,0.227l-2.022,4.13l-4.552,0.676
			c-0.153,0.025-0.278,0.13-0.327,0.276c-0.047,0.148-0.006,0.31,0.106,0.413l3.302,3.203l-0.763,4.534
			c-0.027,0.153,0.035,0.303,0.161,0.395c0.069,0.053,0.152,0.079,0.237,0.079c0.065,0,0.129-0.016,0.188-0.051l4.064-2.149
			l4.076,2.129c0.06,0.029,0.122,0.045,0.186,0.045c0.221,0,0.404-0.185,0.404-0.405c0-0.035-0.002-0.064-0.013-0.09l-0.787-4.511
			l3.283-3.219C71.582,5.604,71.621,5.442,71.573,5.294L71.573,5.294z M67.469,8.504c-0.097,0.092-0.138,0.226-0.114,0.356
			l0.686,3.934l-3.539-1.85c-0.118-0.061-0.258-0.056-0.377,0l-3.528,1.872l0.661-3.939c0.021-0.133-0.021-0.264-0.117-0.358
			l-2.862-2.777l3.95-0.587c0.131-0.021,0.246-0.102,0.302-0.221l1.756-3.585l1.779,3.576c0.06,0.12,0.173,0.201,0.305,0.221
			l3.953,0.563L67.469,8.504z M67.469,8.504"/>


		<path clip-path="url(#SVGID_10_)" d="M90.573,5.294c-0.048-0.146-0.175-0.251-0.327-0.275l-4.552-0.646l-2.05-4.118
			c-0.068-0.14-0.208-0.225-0.361-0.225c-0.152,0-0.293,0.085-0.362,0.227l-2.022,4.13l-4.552,0.676
			c-0.153,0.025-0.278,0.13-0.327,0.276c-0.047,0.148-0.006,0.31,0.106,0.413l3.302,3.203l-0.763,4.534
			c-0.027,0.153,0.035,0.303,0.161,0.395c0.069,0.053,0.152,0.079,0.237,0.079c0.065,0,0.129-0.016,0.188-0.051l4.064-2.149
			l4.076,2.129c0.06,0.029,0.122,0.045,0.186,0.045c0.221,0,0.404-0.185,0.404-0.405c0-0.035-0.002-0.064-0.013-0.09l-0.787-4.511
			l3.283-3.219C90.582,5.604,90.621,5.442,90.573,5.294L90.573,5.294z M86.469,8.504c-0.097,0.092-0.138,0.226-0.114,0.356
			l0.686,3.934l-3.539-1.85c-0.118-0.061-0.258-0.056-0.377,0l-3.528,1.872l0.661-3.939c0.021-0.133-0.021-0.264-0.117-0.358
			l-2.862-2.777l3.95-0.587c0.131-0.021,0.246-0.102,0.302-0.221l1.756-3.585l1.779,3.576c0.06,0.12,0.173,0.201,0.305,0.221
			l3.953,0.563L86.469,8.504z M86.469,8.504"/>

</svg>
