<?xml version="1.0" encoding="utf-8"?>
<!-- Generator: Adobe Illustrator 16.0.0, SVG Export Plug-In . SVG Version: 6.00 Build 0)  -->
<!DOCTYPE svg PUBLIC "-//W3C//DTD SVG 1.1//EN" "http://www.w3.org/Graphics/SVG/1.1/DTD/svg11.dtd">
<svg version="1.1" id="Layer_1" xmlns="http://www.w3.org/2000/svg" xmlns:xlink="http://www.w3.org/1999/xlink" x="0px" y="0px"
	 width="1280px" height="110px" viewBox="0 0 1280 110" enable-background="new 0 0 1280 110" xml:space="preserve">


	<path opacity="0.3" fill="#000000" d="M1280,0.378c-68.866,18.908-193.274,57.919-404.525,68.525
	c-278.323,13.973-240.92-41.919-462.038-57.536C238.235-1.007,85.84,49.055,0,83.465v22.583l1280,3.804V0.378z"/>
	<path opacity="0.5" fill="#76ee15" d="M1280,11.378c-68.866,18.908-193.274,57.919-404.525,68.525
	c-278.323,13.973-240.92-41.919-462.038-57.536C238.235,9.993,85.84,60.055,0,94.465v22.583l1280,3.804V11.378z"/>
	<path fill="#1b77b2" d="M1280,22.378c-68.866,18.908-193.274,57.919-404.525,68.525c-278.323,13.973-240.92-41.919-462.038-57.536
	C238.235,20.993,85.84,71.055,0,105.465v22.583l1280,3.804V22.378z"/>
</svg>
