<?xml version="1.0" encoding="iso-8859-1"?>
<!-- Generator: Adobe Illustrator 19.0.0, SVG Export Plug-In . SVG Version: 6.00 Build 0)  -->
<svg version="1.1" id="Layer_1" xmlns="http://www.w3.org/2000/svg" xmlns:xlink="http://www.w3.org/1999/xlink" x="0px" y="0px"
	 viewBox="0 0 512 512" style="enable-background:new 0 0 512 512;" xml:space="preserve">
		<path d="M503.202,444.126L390.89,331.815l7.115-18.973c1.327-3.54,0.463-7.529-2.21-10.203l-16.757-16.757
			c-3.765-3.764-9.868-3.765-13.635,0l-21.053,21.053l-44.014-44.014l97.59-97.578c9.37-9.381,21.227-16.564,34.286-20.774
			c11.149-3.589,21.432-9.878,29.738-18.184c14.368-14.365,22.101-33.468,21.78-53.789c-0.321-20.319-8.673-39.181-23.515-53.111
			c-2.423-2.273-5.841-3.138-9.052-2.293c-3.211,0.845-5.76,3.283-6.75,6.453l-12.225,39.195c-1.509,4.839-4.814,8.802-9.309,11.158
			c-4.497,2.358-9.641,2.823-14.477,1.315c-7.985-2.494-13.351-9.775-13.351-18.113c0-1.91,0.294-3.82,0.874-5.678l12.083-38.744
			c0.994-3.189,0.267-6.666-1.923-9.188c-2.189-2.523-5.531-3.736-8.826-3.197c-13.792,2.239-26.577,8.259-36.97,17.405
			c-18.299,16.089-27.608,40.11-24.902,64.251c2.764,24.788-6.073,49.426-24.244,67.597L249.1,211.687L115.142,77.729l-2.428-26.272
			c-0.276-2.993-1.932-5.684-4.476-7.281L40.15,1.474c-3.81-2.388-8.763-1.827-11.941,1.351L2.824,28.209
			c-3.179,3.179-3.738,8.132-1.35,11.939l42.703,68.087c1.595,2.545,4.288,4.201,7.28,4.477l26.272,2.427l133.963,133.965
			l-97.586,97.573c-9.377,9.379-21.238,16.559-34.304,20.767c-11.297,3.638-21.301,9.76-29.739,18.196
			c-14.366,14.366-22.1,33.468-21.778,53.785c0.323,20.314,8.673,39.173,23.515,53.104c2.422,2.273,5.84,3.137,9.05,2.295
			c3.211-0.845,5.76-3.28,6.751-6.45l12.239-39.187c1.51-4.845,4.815-8.811,9.307-11.168c4.377-2.297,9.374-2.798,14.111-1.427
			c0.123,0.044,0.247,0.085,0.373,0.125c9.992,3.115,15.588,13.789,12.474,23.789l-12.083,38.731
			c-0.995,3.189-0.269,6.668,1.922,9.191c1.847,2.129,4.512,3.322,7.28,3.322c0.514,0,1.032-0.041,1.549-0.125
			c13.769-2.239,26.549-8.251,36.971-17.396c18.279-16.086,27.587-40.109,24.897-64.267c-2.773-24.775,6.064-49.411,24.243-67.592
			l62.043-62.031l44.009,44.009l-21.053,21.053c-3.765,3.768-3.765,9.872,0,13.637l16.757,16.759
			c2.674,2.674,6.668,3.535,10.203,2.21l18.975-7.115l112.31,112.311c5.866,5.866,13.572,8.799,21.277,8.799
			c7.705,0,15.41-2.932,21.277-8.799l16.523-16.523C514.933,474.946,514.933,455.857,503.202,444.126z M324.776,163.278
			c22.339-22.337,33.191-52.725,29.773-83.374c-2.005-17.891,4.9-35.697,18.475-47.632c3.368-2.964,7.082-5.485,11.05-7.519
			l-6.557,21.022c-1.161,3.719-1.748,7.56-1.748,11.42c0,16.82,10.803,31.495,26.888,36.52c20.151,6.282,41.657-4.994,47.939-25.14
			l6.81-21.836c4.458,7.897,6.895,16.82,7.043,26.159c0.239,15.055-5.492,29.208-16.135,39.849
			c-6.24,6.24-13.645,10.77-22.016,13.465c-15.963,5.144-30.492,13.963-42.011,25.496l-97.586,97.574l-23.966-23.966
			L324.776,163.278z M187.248,348.735c-22.35,22.35-33.201,52.739-29.771,83.366c1.994,17.905-4.912,35.719-18.462,47.643
			c-3.376,2.962-7.089,5.479-11.058,7.511l6.556-21.012c6.22-19.977-4.808-41.281-24.618-47.768
			c-0.174-0.064-0.348-0.125-0.527-0.181c-9.762-3.04-20.124-2.1-29.177,2.649c-9.055,4.751-15.717,12.744-18.756,22.501
			l-6.821,21.837c-4.461-7.897-6.9-16.822-7.048-26.161c-0.239-15.053,5.492-29.203,16.135-39.847
			c6.251-6.251,13.658-10.786,22.014-13.477c15.964-5.141,30.498-13.954,42.027-25.486l97.586-97.574l23.965,23.965L187.248,348.735
			z M87.934,98.078c-1.883-1.883-4.35-2.824-6.818-2.824c-1.08,0-2.161,0.181-3.19,0.541l-19.948-1.843l-36.087-57.54L36.413,21.89
			l57.541,36.088l1.843,19.95c-0.355,1.016-0.542,2.091-0.542,3.187c0,2.557,1.016,5.009,2.823,6.817l232.635,232.637
			l-10.145,10.146L87.934,98.078z M328.901,371.388l-17.018,6.381l-5.551-5.551l65.888-65.886l5.551,5.551l-6.381,17.017
			L328.901,371.388z M489.566,473.042l-16.523,16.523c-4.212,4.212-11.069,4.212-15.283,0L347.877,379.683l31.806-31.806
			l109.883,109.883C493.78,461.973,493.78,468.828,489.566,473.042z"/>
</svg>
