<?xml version="1.0" encoding="iso-8859-1"?>
<!-- Generator: Adobe Illustrator 19.0.0, SVG Export Plug-In . SVG Version: 6.00 Build 0)  -->
<svg version="1.1" id="Layer_1" xmlns="http://www.w3.org/2000/svg" xmlns:xlink="http://www.w3.org/1999/xlink" x="0px" y="0px"
	 viewBox="0 0 301.179 301.179" style="enable-background:new 0 0 301.179 301.179;" xml:space="preserve">
			<path d="M270.148,87.804h-42.96l-44.962-61.675c-2.66-3.647-7.774-4.449-11.422-1.79c-3.649,2.66-4.451,7.774-1.791,11.422
				l37.941,52.044H94.226l37.942-52.044c2.66-3.648,1.858-8.763-1.791-11.422c-3.647-2.657-8.762-1.86-11.422,1.79L73.992,87.804
				H31.033C13.92,87.804,0,101.726,0,118.838v8.4c0,16.197,12.474,29.527,28.319,30.907l20.604,113.55
				c0.705,3.888,4.092,6.716,8.044,6.716h187.243c3.952,0,7.338-2.827,8.044-6.716l20.603-113.55
				c15.845-1.38,28.32-14.71,28.32-30.907v-8.4C301.181,101.726,287.26,87.804,270.148,87.804z M237.387,262.059H63.793
				L44.96,158.27H256.22L237.387,262.059z M284.831,127.237c0,8.096-6.587,14.683-14.683,14.683c-6.336,0-224.826,0-239.114,0
				c-8.096,0-14.683-6.587-14.683-14.683v-8.4c0-8.097,6.587-14.683,14.683-14.683c9.175,0,228.175,0,239.114,0
				c8.096,0,14.683,6.587,14.683,14.683V127.237z"/>
			<path d="M98.27,242.438c4.516,0,8.175-3.66,8.175-8.175v-48.198c0-4.515-3.659-8.175-8.175-8.175s-8.175,3.66-8.175,8.175v48.198
				C90.095,238.778,93.755,242.438,98.27,242.438z"/>
			<path d="M133.15,242.438c4.516,0,8.175-3.66,8.175-8.175v-48.198c0-4.515-3.659-8.175-8.175-8.175s-8.175,3.66-8.175,8.175
				v48.198C124.975,238.778,128.635,242.438,133.15,242.438z"/>
			<path d="M168.03,242.438c4.516,0,8.175-3.66,8.175-8.175v-48.198c0-4.515-3.659-8.175-8.175-8.175s-8.175,3.66-8.175,8.175
				v48.198C159.855,238.778,163.515,242.438,168.03,242.438z"/>
			<path d="M202.91,242.438c4.516,0,8.175-3.66,8.175-8.175v-48.198c0-4.515-3.659-8.175-8.175-8.175s-8.175,3.66-8.175,8.175
				v48.198C194.735,238.778,198.395,242.438,202.91,242.438z"/>
</svg>
