<svg version="1.1" xmlns="http://www.w3.org/2000/svg" xmlns:xlink="http://www.w3.org/1999/xlink" x="0px" y="0px"
	 viewBox="0 0 485 485" style="enable-background:new 0 0 485 485;" xml:space="preserve">
		<path d="M282.5,55.15c-33.5,0-66.3,8.9-95,25.8c-25.6,15.1-47.3,36.1-63.2,61.1H52.7c-29.1,0-52.7,23.6-52.7,52.7v95.5
			c0,29.1,23.6,52.7,52.7,52.7h71.6c15.9,25,37.6,46,63.2,61.1c28.7,16.9,61.5,25.8,95,25.8c7.5,0,13.5-6,13.5-13.5V68.65
			C296,61.25,290,55.15,282.5,55.15z M118.4,315.95H52.7c-14.2,0-25.7-11.5-25.7-25.7v-95.5c0-14.2,11.5-25.7,25.7-25.7h65.7V315.95
			z M269,402.35c-50.7-4.3-96.9-32.8-123.6-76.6v-166.4c26.7-43.8,72.9-72.3,123.6-76.6V402.35z"/>
</svg>
