<?xml version="1.0" encoding="iso-8859-1"?>
<!-- Generator: Adobe Illustrator 19.0.0, SVG Export Plug-In . SVG Version: 6.00 Build 0)  -->
<svg version="1.1" id="Layer_1" xmlns="http://www.w3.org/2000/svg" xmlns:xlink="http://www.w3.org/1999/xlink" x="0px" y="0px"
	 viewBox="0 0 512 512" style="enable-background:new 0 0 512 512;" xml:space="preserve">
			<path d="M460.8,230.4c2.185,0,4.369-0.836,6.033-2.5c3.337-3.337,3.337-8.73,0-12.066c-0.324-0.324-32.393-32.768-40.337-72.439
				c-0.922-4.617-5.385-7.629-10.035-6.69c-4.625,0.922-7.62,5.419-6.699,10.035c8.943,44.689,43.529,79.693,45.005,81.161
				C456.431,229.564,458.615,230.4,460.8,230.4z"/>
			<path d="M494.933,42.667c0-4.71-3.823-8.533-8.533-8.533s-8.533,3.823-8.533,8.533v196.267h-39.04
				c-15.241-16.119-97.493-107.247-97.493-196.267c0-4.71-3.823-8.533-8.533-8.533c-4.71,0-8.533,3.823-8.533,8.533
				c0,104.73,100.617,206.549,104.9,210.833c1.596,1.604,3.772,2.5,6.033,2.5h51.2c4.71,0,8.533-3.823,8.533-8.533V42.667z"/>
			<path d="M8.533,17.067h494.933c4.71,0,8.533-3.823,8.533-8.533S508.177,0,503.467,0H8.533C3.823,0,0,3.823,0,8.533
				S3.823,17.067,8.533,17.067z"/>
			<path d="M486.4,477.867c4.71,0,8.533-3.823,8.533-8.533V281.6c0-4.71-3.823-8.533-8.533-8.533h-51.2
				c-3.49,0-6.63,2.125-7.927,5.359c-1.417,3.55-34.739,88.047-34.739,190.908c0,4.71,3.823,8.533,8.533,8.533
				c4.71,0,8.533-3.823,8.533-8.533c0-85.103,24.303-159.104,31.522-179.2h36.745v179.2
				C477.867,474.044,481.69,477.867,486.4,477.867z"/>
			<path d="M503.467,494.933H8.533c-4.71,0-8.533,3.823-8.533,8.533S3.823,512,8.533,512h494.933c4.71,0,8.533-3.823,8.533-8.533
				S508.177,494.933,503.467,494.933z"/>
			<path d="M217.634,205.961c-2.645-1.536-5.905-1.545-8.55-0.026c-2.654,1.519-4.284,4.344-4.284,7.398V332.8
				c0,3.055,1.63,5.88,4.284,7.398c1.314,0.759,2.782,1.135,4.25,1.135c1.485,0,2.97-0.384,4.301-1.161l102.4-59.733
				c2.62-1.527,4.232-4.343,4.232-7.373c0-3.029-1.613-5.845-4.232-7.373L217.634,205.961z M221.867,317.943V228.19l76.928,44.877
				L221.867,317.943z"/>
			<path d="M76.8,273.067H25.6c-4.71,0-8.533,3.823-8.533,8.533v187.733c0,4.71,3.823,8.533,8.533,8.533
				c4.71,0,8.533-3.823,8.533-8.533v-179.2h36.745c7.219,20.087,31.522,93.978,31.522,179.2c0,4.71,3.823,8.533,8.533,8.533
				s8.533-3.823,8.533-8.533c0-102.861-33.323-187.358-34.739-190.908C83.422,275.191,80.29,273.067,76.8,273.067z"/>
			<path d="M57.233,227.9c1.468-1.468,36.062-36.471,44.996-81.161c0.93-4.617-2.065-9.114-6.69-10.035
				c-4.651-0.939-9.122,2.065-10.044,6.69c-7.902,39.526-40.013,72.115-40.337,72.439c-3.319,3.345-3.319,8.738,0.017,12.075
				c1.664,1.655,3.84,2.492,6.025,2.492C53.385,230.4,55.569,229.564,57.233,227.9z"/>
			<path d="M179.2,34.133c-4.71,0-8.533,3.823-8.533,8.533c0,89.02-82.253,180.147-97.493,196.267h-39.04V42.667
				c0-4.71-3.823-8.533-8.533-8.533c-4.71,0-8.533,3.823-8.533,8.533v204.8c0,4.71,3.823,8.533,8.533,8.533h51.2
				c2.261,0,4.429-0.896,6.033-2.5c4.284-4.284,104.9-106.103,104.9-210.833C187.733,37.956,183.91,34.133,179.2,34.133z"/>
</svg>
