<?xml version="1.0" encoding="utf-8"?>
<!-- Generator: Adobe Illustrator 19.1.0, SVG Export Plug-In . SVG Version: 6.00 Build 0)  -->
<svg version="1.1" id="Layer_1" xmlns="http://www.w3.org/2000/svg" xmlns:xlink="http://www.w3.org/1999/xlink" x="0px" y="0px"
	 viewBox="0 0 64 64" enable-background="new 0 0 64 64" xml:space="preserve">
	<path d="M42.4472008,36.1054993l-16-8c-0.3105011-0.1542988-0.6787014-0.1396999-0.9726009,0.0439014
		C25.1795998,28.3320007,25,28.6532993,25,29v16c0,0.3466988,0.1795998,0.6679993,0.4745998,0.8506012
		C25.6347008,45.9501991,25.8173008,46,26,46c0.1532993,0,0.3055992-0.0351982,0.4472008-0.1054993l16-8
		C42.7860985,37.7246017,43,37.3788986,43,37S42.7860985,36.2753983,42.4472008,36.1054993z M27,43.3818016V30.6182003
		L39.7635994,37L27,43.3818016z"/>
	<path d="M60,5h-56C1.7909007,5,0.0000008,6.7908001,0.0000008,9v46c0,2.2092018,1.7908999,4,3.9999998,4h56
		c2.2090988,0,4-1.7907982,4-4V9C64,6.7908001,62.2090988,5,60,5z M62,9v8h-8.3283005l2.6790009-10H60
		C61.1026993,7,62,7.8972001,62,9z M21.2804241,7l-2.6790009,10H9.6508007l2.6788998-10H21.2804241z M23.3507004,7h8.9297218
		l-2.6789989,10h-8.9297237L23.3507004,7z M34.3507004,7h8.9297218l-2.678997,10h-8.9297256L34.3507004,7z M45.3507004,7h8.9297218
		l-2.678997,10h-8.9297256L45.3507004,7z M4.0000005,7h6.2594237L7.5805006,17H2.0000007V9
		C2.0000007,7.8972001,2.8972008,7,4.0000005,7z M60,57h-56c-1.1027997,0-1.9999998-0.8972015-1.9999998-2V19h60v36
		C62,56.1027985,61.1026993,57,60,57z"/>
</svg>
