<?xml version="1.0" encoding="utf-8"?>
<!-- Generator: Adobe Illustrator 16.0.0, SVG Export Plug-In . SVG Version: 6.00 Build 0)  -->
<!DOCTYPE svg PUBLIC "-//W3C//DTD SVG 1.1//EN" "http://www.w3.org/Graphics/SVG/1.1/DTD/svg11.dtd">
<svg version="1.1" id="Layer_1" xmlns="http://www.w3.org/2000/svg" xmlns:xlink="http://www.w3.org/1999/xlink" x="0px" y="0px"
	 width="1920px" height="192.375px" viewBox="0 0 1920 192.375" enable-background="new 0 0 1920 192.375" xml:space="preserve">
<g>
	<path fill-rule="evenodd" clip-rule="evenodd" fill="#009FD7" d="M1920,28.405c-24.553-14.455-115.69-60.69-209.13,9.174
		c-59.813,44.725-144.539-42.263-220.592-8.981c-24.896,10.893-117.408,63.113-155.667,44.909
		c-226.198-107.622-208.59,35.451-320.662-22.31C860.924-27.674,846.698,134.734,644.004,39.63
		C563.2,1.717,478.949,63.942,397.832,66.588c-120.578,3.936-147.26-84.875-232.347-36.518
		C134.249,47.823,63.566,59.838,25.896,34.852C18.744,30.107,9.622,25.873,0,22.978V193h1920V28.405z"/>
	<path fill-rule="evenodd" clip-rule="evenodd" fill="#00ADEE" d="M1920,28.405c-67.053-55.28-181.727,109.414-319.159,53.823
		c-187.673-75.911-153.406,15.393-293.122,15.393c-74.337,0-183.715-70.171-229.216-46.234
		c-145.892,76.75-181.479,9.183-273.033-4.194c-78.608-11.485-148.26,56.23-207.053,49.155
		c-85.191-10.252-145.178-80.267-250.158-31.726C258.071,106.324,163.832,110.3,72.61,83.246C44.475,74.902,27.4,73.927,0,90.485
		V193h1920V28.405z"/>
	<path fill-rule="evenodd" clip-rule="evenodd" fill="#21B9EC" d="M1920,110.72c-1.266-0.854-2.289-1.594-2.992-2.175
		C1798,9.95,1774.545,119.528,1697.097,81.448c-44.234-21.748-100.668-31.019-141.241-2.342
		c-74.666,52.778-121.202,58.481-188.87-1.929c-130.465-116.481-163.937,113.603-355.545,6.449
		c-144.492-80.803-208.306,64.247-298.242,34.07C511.091,49.881,436.9,171.192,301.258,96.472
		C155.076,15.945,133.74,147.529,0,166.184V193h1920V110.72z"/>
	<path fill-rule="evenodd" clip-rule="evenodd" fill="#44C7F4" d="M1920,131.492c-9.622,2.575-18.746,6.341-25.897,10.561
		c-37.669,22.228-108.354,11.539-139.588-4.254c-85.088-43.014-111.771,35.984-232.347,32.485
		c-81.118-2.354-165.369-57.705-246.174-23.98c-202.691,84.597-216.917-59.865-369.943,10.289
		c-112.071,51.38-121.353-44.991-320.663,19.846c-39.876,12.974-133.757-10.519-158.653-20.208
		c-76.053-29.607-142.407,48.127-217.607,25.151C69.572,138.744,24.552,174.691,0,187.549V193h1920V131.492z"/>
</g>
</svg>
