<?xml version="1.0" encoding="iso-8859-1"?>
<!-- Generator: Adobe Illustrator 19.1.0, SVG Export Plug-In . SVG Version: 6.00 Build 0)  -->
<svg version="1.1" id="Capa_1" xmlns="http://www.w3.org/2000/svg" xmlns:xlink="http://www.w3.org/1999/xlink" x="0px" y="0px"
	 viewBox="0 0 493.224 493.224" style="enable-background:new 0 0 493.224 493.224;" xml:space="preserve">
<g>
	<g>
		<path d="M246.613,0C110.413,0,0,110.412,0,246.613s110.413,246.611,246.613,246.611s246.611-110.412,246.611-246.611
			S382.812,0,246.613,0z M343.238,128.733c21.128,0,38.256,17.128,38.256,38.256s-17.128,38.256-38.256,38.256
			s-38.256-17.128-38.256-38.256S322.11,128.733,343.238,128.733z M146.495,128.733c21.128,0,38.256,17.128,38.256,38.256
			s-17.128,38.256-38.256,38.256s-38.256-17.128-38.256-38.256S125.367,128.733,146.495,128.733z M247.233,412.917
			c-74.374,0-138.225-45.025-165.805-109.302h48.725c24.021,39.5,67.469,65.885,117.079,65.885s93.058-26.384,117.079-65.885h48.725
			C385.46,367.892,321.608,412.917,247.233,412.917z"/>
	</g>
	<g>
	</g>
	<g>
	</g>
	<g>
	</g>
	<g>
	</g>
	<g>
	</g>
	<g>
	</g>
	<g>
	</g>
	<g>
	</g>
	<g>
	</g>
	<g>
	</g>
	<g>
	</g>
	<g>
	</g>
	<g>
	</g>
	<g>
	</g>
	<g>
	</g>
</g>
<g>
</g>
<g>
</g>
<g>
</g>
<g>
</g>
<g>
</g>
<g>
</g>
<g>
</g>
<g>
</g>
<g>
</g>
<g>
</g>
<g>
</g>
<g>
</g>
<g>
</g>
<g>
</g>
<g>
</g>
</svg>
